#!OML:ASF H:\Terrain\Patient Classification 1\Takeo\Monday\TakeoMonday.ASF
:FULLY-SPECIFIED
:DEGREES
66
root 9.86326 16.9698 -19.2133 -2.73497 4.20568 2.65984
lowerback 5.29934 -2.21316 -2.84968
upperback 3.22969 -3.06556 1.09608
thorax 0.568267 -1.58654 2.86208
lowerneck -13.1797 3.17983 -0.957195
upperneck -2.88225 4.3911 -2.66464
head 1.35056 2.12877 -0.454481
rclavicle -2.09221e-014 1.98785e-015
rhumerus -44.6654 -11.1164 -78.645
rradius 17.9007
rwrist -2.77644
rhand -20.0808 18.0874
rfingers 7.12502
rthumb 6.26182 -11.8001
lclavicle -2.09221e-014 1.98785e-015
lhumerus -23.873 -8.58712 91.1049
lradius 63.9795
lwrist 27.1456
lhand -25.1219 16.6334
lfingers 7.12502
lthumb 1.39388 46.6086
rfemur -29.0812 5.10358 16.4518
rtibia 24.9364
rfoot -14.1515 -7.0619
rtoes -15.8036
lfemur 15.8815 -4.13006 -30.8254
ltibia 10.2927
lfoot -13.9637 5.32087
ltoes -11.6966
67
root 9.85121 16.9684 -19.0331 -2.52551 4.24228 2.60888
lowerback 5.05107 -2.1783 -2.84476
upperback 3.16549 -3.01324 1.1784
thorax 0.640715 -1.5615 2.93242
lowerneck -13.3431 3.13924 -0.612947
upperneck -2.68711 4.3064 -3.2322
head 1.46778 2.06496 -0.691965
rclavicle 4.62174e-015 -1.59028e-014
rhumerus -45.0717 -11.9003 -77.9049
rradius 17.5148
rwrist -2.17992
rhand -19.5968 17.5699
rfingers 7.12502
rthumb 6.7291 -12.3032
lclavicle 4.62174e-015 -1.59028e-014
lhumerus -24.0808 -8.86511 91.3184
lradius 64.2585
lwrist 27.0999
lhand -24.9735 16.4144
lfingers 7.12502
lthumb 1.53714 46.3886
rfemur -29.5242 4.49384 16.8417
rtibia 24.6682
rfoot -14.726 -6.53259
rtoes -15.2883
lfemur 16.8159 -4.09029 -30.7106
ltibia 9.27689
lfoot -13.3286 5.43883
ltoes -12.5267
68
root 9.83593 16.9528 -18.8478 -2.21698 4.45736 2.8769
lowerback 4.66969 -2.23733 -3.2404
upperback 3.04794 -3.09808 1.25009
thorax 0.76454 -1.61132 3.21623
lowerneck -13.3669 3.06606 -0.958026
upperneck -2.622 4.26087 -3.16503
head 1.48204 2.04495 -0.613751
rclavicle 4.34841e-014 -4.77083e-015
rhumerus -45.4392 -12.6672 -76.9705
rradius 17.0429
rwrist -1.5291
rhand -18.7562 17.5754
rfingers 7.12502
rthumb 7.54052 -12.2702
lclavicle 4.34841e-014 -4.77083e-015
lhumerus -24.228 -8.67758 91.5158
lradius 64.2484
lwrist 26.7001
lhand -25.0729 16.2065
lfingers 7.12502
lthumb 1.44111 46.1814
rfemur -29.8433 4.19006 16.7257
rtibia 24.3969
rfoot -15.1593 -6.74108
rtoes -14.6292
lfemur 17.2307 -4.23198 -30.9011
ltibia 9.11272
lfoot -13.1119 5.39382
ltoes -12.0276
69
root 9.81647 16.925 -18.6677 -2.16659 4.68413 3.09183
lowerback 4.68229 -2.31061 -3.55103
upperback 3.00667 -3.20798 1.27938
thorax 0.743935 -1.67033 3.4255
lowerneck -13.3078 3.02672 -1.81022
upperneck -2.88529 4.30768 -2.31832
head 1.34099 2.10128 -0.204642
rclavicle -4.12478e-015 -8.74653e-015
rhumerus -45.7677 -13.7246 -75.9124
rradius 16.5432
rwrist -0.308187
rhand -18.4845 18.2948
rfingers 7.12502
rthumb 7.80269 -11.5412
lclavicle -4.12478e-015 -8.74653e-015
lhumerus -24.289 -8.37165 91.6126
lradius 64.1338
lwrist 26.2362
lhand -24.4564 16.0839
lfingers 7.12502
lthumb 2.03662 46.0539
rfemur -29.7433 4.16633 16.6321
rtibia 24.1827
rfoot -15.0023 -7.49624
rtoes -13.4143
lfemur 17.4912 -4.34023 -31.0563
ltibia 9.68904
lfoot -13.0648 5.38225
ltoes -11.7842
70
root 9.79981 16.9011 -18.489 -2.32491 4.64741 2.76153
lowerback 4.85608 -2.30877 -3.24975
upperback 3.0399 -3.19901 1.39315
thorax 0.669778 -1.6616 3.38128
lowerneck -13.5954 3.04233 -2.09256
upperneck -2.72472 4.37472 -1.9617
head 1.42843 2.14148 -0.0347661
rclavicle -5.26779e-015 1.43125e-014
rhumerus -46.0753 -14.4991 -75.1656
rradius 16.1919
rwrist 0.570454
rhand -18.663 18.5333
rfingers 7.12502
rthumb 7.6304 -11.3091
lclavicle -5.26779e-015 1.43125e-014
lhumerus -24.5587 -8.32467 91.7912
lradius 64.1871
lwrist 26.0739
lhand -23.6512 16.2044
lfingers 7.12502
lthumb 2.81419 46.1655
rfemur -29.4033 4.39661 17.1714
rtibia 24.1984
rfoot -14.5387 -8.40829
rtoes -13.217
lfemur 17.8706 -4.19122 -30.6288
ltibia 10.4633
lfoot -13.1727 5.22142
ltoes -11.2972
71
root 9.78618 16.8888 -18.3031 -2.44431 4.63632 2.2934
lowerback 4.84242 -2.35225 -2.87877
upperback 2.99926 -3.24242 1.59719
thorax 0.62947 -1.67871 3.38579
lowerneck -13.7846 3.0942 -1.55469
upperneck -2.34554 4.39386 -2.72267
head 1.62054 2.11839 -0.356614
rclavicle 4.66647e-014 -2.54444e-014
rhumerus -46.4809 -14.7268 -74.6705
rradius 16.0284
rwrist 1.07661
rhand -18.7503 17.7294
rfingers 7.12502
rthumb 7.5462 -12.116
lclavicle 4.66647e-014 -2.54444e-014
lhumerus -25.0494 -8.20559 92.0474
lradius 64.1211
lwrist 25.9677
lhand -23.4884 16.1539
lfingers 7.12502
lthumb 2.97148 46.1129
rfemur -29.0443 4.80996 17.7632
rtibia 24.4044
rfoot -13.9434 -9.48303
rtoes -13.914
lfemur 18.2193 -4.34862 -30.1081
ltibia 11.4226
lfoot -13.4704 5.06006
ltoes -9.44287
72
root 9.76663 16.8767 -18.1131 -2.59864 4.74629 2.47873
lowerback 4.99132 -2.38331 -3.26232
upperback 2.91827 -3.30335 1.66179
thorax 0.495178 -1.71154 3.67939
lowerneck -13.5111 3.1306 -1.15684
upperneck -2.44114 4.38932 -3.42144
head 1.57065 2.09812 -0.650709
rclavicle 3.97569e-016 1.66979e-014
rhumerus -46.94 -14.964 -74.1149
rradius 15.902
rwrist 1.64496
rhand -18.6466 17.2106
rfingers 7.12502
rthumb 7.64626 -12.6312
lclavicle 3.97569e-016 1.66979e-014
lhumerus -25.5027 -8.00752 92.2577
lradius 63.732
lwrist 25.7759
lhand -23.6366 15.7848
lfingers 7.12502
lthumb 2.82827 45.7458
rfemur -28.6031 5.43568 17.5336
rtibia 24.841
rfoot -13.5594 -10.5548
rtoes -13.1775
lfemur 18.3947 -4.20488 -30.1587
ltibia 12.7974
lfoot -13.8201 4.71666
ltoes -9.26728
73
root 9.74724 16.8547 -17.9179 -2.67697 4.73883 2.64745
lowerback 5.02391 -2.40439 -3.55278
upperback 2.87146 -3.34485 1.7147
thorax 0.453569 -1.7352 3.90157
lowerneck -13.1652 3.17838 -1.33158
upperneck -2.77529 4.45778 -3.37537
head 1.39409 2.14409 -0.610988
rclavicle 3.72721e-014 1.59028e-015
rhumerus -47.1554 -15.6306 -73.2581
rradius 15.3893
rwrist 2.65529
rhand -18.6951 16.6575
rfingers 7.12502
rthumb 7.59941 -13.186
lclavicle 3.72721e-014 1.59028e-015
lhumerus -25.9522 -7.77701 92.4249
lradius 63.3825
lwrist 25.8425
lhand -24.4072 15.8563
lfingers 7.12502
lthumb 2.08406 45.8259
rfemur -28.2991 6.11789 17.3618
rtibia 25.5793
rfoot -13.1652 -11.3535
rtoes -10.3179
lfemur 18.5645 -3.99963 -30.1974
ltibia 13.9709
lfoot -13.9655 4.37105
ltoes -10.3471
74
root 9.73256 16.8187 -17.7182 -2.593 4.73086 2.32793
lowerback 4.69878 -2.49762 -3.16268
upperback 2.83369 -3.44479 1.78418
thorax 0.584878 -1.78282 3.74209
lowerneck -13.139 3.25362 -1.08832
upperneck -2.84403 4.52272 -3.56698
head 1.37977 2.17109 -0.710162
rclavicle -1.44119e-015 -4.77083e-015
rhumerus -47.2947 -16.6898 -72.2811
rradius 14.6851
rwrist 4.17755
rhand -18.6859 15.8541
rfingers 7.12502
rthumb 7.60831 -13.989
lclavicle -1.44119e-015 -4.77083e-015
lhumerus -26.4086 -7.48273 92.3856
lradius 63.115
lwrist 25.8524
lhand -24.2166 16.2731
lfingers 7.12502
lthumb 2.26819 46.2408
rfemur -28.3178 6.44897 17.8533
rtibia 26.6973
rfoot -12.1493 -11.8991
rtoes -9.48607
lfemur 18.8116 -4.14817 -29.8195
ltibia 14.7344
lfoot -13.8348 4.1338
ltoes -10.7101
75
root 9.71739 16.8005 -17.5182 -2.50282 4.84824 2.35827
lowerback 4.51825 -2.57181 -3.10336
upperback 2.68416 -3.53747 1.69107
thorax 0.529397 -1.82394 3.61059
lowerneck -13.4166 3.26057 -0.810313
upperneck -2.39817 4.51442 -3.66227
head 1.58651 2.15154 -0.780289
rclavicle -9.49197e-015 1.19271e-014
rhumerus -47.6922 -17.3861 -71.6883
rradius 14.4085
rwrist 4.85125
rhand -18.2734 15.5657
rfingers 7.12502
rthumb 8.00648 -14.2626
lclavicle -9.49197e-015 1.19271e-014
lhumerus -27.0567 -7.16335 92.3118
lradius 62.7705
lwrist 25.7654
lhand -21.8805 16.9013
lfingers 7.12502
lthumb 4.52417 46.8329
rfemur -28.3853 6.53383 18.0195
rtibia 27.9175
rfoot -10.7524 -12.6281
rtoes -11.488
lfemur 19.0405 -4.28888 -29.7814
ltibia 15.4358
lfoot -13.528 3.94922
ltoes -12.0577
